<?xml version="1.0" encoding="UTF-8" standalone="no"?>
<svg
   xmlns:dc="http://purl.org/dc/elements/1.1/"
   xmlns:cc="http://creativecommons.org/ns#"
   xmlns:rdf="http://www.w3.org/1999/02/22-rdf-syntax-ns#"
   xmlns:svg="http://www.w3.org/2000/svg"
   xmlns="http://www.w3.org/2000/svg"
   viewBox="0 0 715.69336 185.50667"
   height="185.50667"
   width="715.69336"
   xml:space="preserve"
   id="svg2"
   version="1.1"><metadata
     id="metadata8"><rdf:RDF><cc:Work
         rdf:about=""><dc:format>image/svg+xml</dc:format><dc:type
           rdf:resource="http://purl.org/dc/dcmitype/StillImage" /></cc:Work></rdf:RDF></metadata><defs
     id="defs6" /><g
     transform="matrix(1.3333333,0,0,-1.3333333,0,185.50667)"
     id="g10"><g
       transform="scale(0.1)"
       id="g12"><path
         id="path14"
         style="fill:#0d7a3f;fill-opacity:1;fill-rule:nonzero;stroke:none"
         d="m 961.371,852.219 c -33.566,0 -60.242,22.761 -60.242,57.48 V 1017.31 H 933.09 V 910.852 c 0,-18.86 11.035,-30.122 28.281,-30.122 17.246,0 28.516,11.262 28.516,30.122 v 106.458 h 31.733 V 909.699 c 0,-34.719 -26.675,-57.48 -60.249,-57.48" /><path
         id="path16"
         style="fill:#0d7a3f;fill-opacity:1;fill-rule:nonzero;stroke:none"
         d="M 1157.35,853.594 1092.5,954.082 V 853.594 h -31.96 v 163.716 h 28.51 l 64.85,-100.251 v 100.251 h 31.96 V 853.594 h -28.51" /><path
         id="path18"
         style="fill:#0d7a3f;fill-opacity:1;fill-rule:nonzero;stroke:none"
         d="m 1226.39,853.594 v 163.716 h 31.97 V 853.594 h -31.97" /><path
         id="path20"
         style="fill:#0d7a3f;fill-opacity:1;fill-rule:nonzero;stroke:none"
         d="m 1362.81,853.594 h -23.91 l -54.04,163.716 h 33.11 l 32.89,-106.685 32.88,106.685 h 33.34 l -54.27,-163.716" /><path
         id="path22"
         style="fill:#0d7a3f;fill-opacity:1;fill-rule:nonzero;stroke:none"
         d="m 1443.95,853.594 v 163.716 h 107.84 v -28.501 h -75.88 v -38.411 h 64.61 v -28.511 h -64.61 v -39.778 h 75.88 v -28.515 h -107.84" /><path
         id="path24"
         style="fill:#0d7a3f;fill-opacity:1;fill-rule:nonzero;stroke:none"
         d="m 1672.77,853.594 -31.96,65.301 h -22.99 v -65.301 h -31.96 v 163.716 h 64.15 c 33.35,0 53.12,-22.759 53.12,-50.122 0,-23 -14.03,-37.247 -29.9,-43 l 36.57,-70.594 z m -24.83,135.215 h -30.12 v -43.231 h 30.12 c 14.03,0 23.23,8.965 23.23,21.61 0,12.648 -9.2,21.621 -23.23,21.621" /><path
         id="path26"
         style="fill:#0d7a3f;fill-opacity:1;fill-rule:nonzero;stroke:none"
         d="m 1783.64,852.219 c -24.83,0 -43.69,5.281 -59.78,21.609 l 20.69,20.692 c 10.35,-10.34 24.38,-13.79 39.55,-13.79 18.86,0 28.98,7.122 28.98,20.239 0,5.742 -1.62,10.574 -5.06,13.789 -3.22,2.996 -6.9,4.597 -14.49,5.75 l -19.78,2.762 c -14.02,2.074 -24.37,6.437 -31.73,13.566 -7.82,7.824 -11.73,18.398 -11.73,32.199 0,29.195 21.62,49.665 57.03,49.665 22.54,0 38.86,-5.52 52.89,-19.091 l -20.23,-20 c -10.35,9.883 -22.77,11.262 -33.58,11.262 -17.01,0 -25.29,-9.426 -25.29,-20.695 0,-4.141 1.38,-8.504 4.83,-11.727 3.22,-2.988 8.51,-5.519 15.17,-6.437 l 19.32,-2.762 c 14.95,-2.062 24.37,-6.203 31.27,-12.648 8.74,-8.27 12.65,-20.235 12.65,-34.715 0,-31.742 -26.44,-49.668 -60.71,-49.668" /><path
         id="path28"
         style="fill:#0d7a3f;fill-opacity:1;fill-rule:nonzero;stroke:none"
         d="m 1876.18,853.594 v 163.716 h 31.96 V 853.594 h -31.96" /><path
         id="path30"
         style="fill:#0d7a3f;fill-opacity:1;fill-rule:nonzero;stroke:none"
         d="M 2012.41,988.809 V 853.594 h -31.96 v 135.215 h -42.77 v 28.501 h 117.51 v -28.501 h -42.78" /><path
         id="path32"
         style="fill:#0d7a3f;fill-opacity:1;fill-rule:nonzero;stroke:none"
         d="m 2152.26,920.742 v -67.148 h -31.74 v 67.148 l -49.21,96.568 h 34.73 l 30.58,-65.99 30.12,65.99 h 34.72 l -49.2,-96.568" /><path
         id="path34"
         style="fill:#0d7a3f;fill-opacity:1;fill-rule:nonzero;stroke:none"
         d="m 2382.93,870.145 c -11.49,-11.493 -25.52,-17.926 -44.14,-17.926 -18.63,0 -32.89,6.433 -44.38,17.926 -16.56,16.566 -16.1,37.023 -16.1,65.316 0,28.281 -0.46,48.75 16.1,65.299 11.49,11.5 25.75,17.94 44.38,17.94 18.62,0 32.65,-6.44 44.14,-17.94 16.56,-16.549 16.33,-37.018 16.33,-65.299 0,-28.293 0.23,-48.75 -16.33,-65.316 z m -23.68,111.3 c -4.6,5.293 -11.73,8.739 -20.46,8.739 -8.74,0 -16.1,-3.446 -20.7,-8.739 -6.21,-6.894 -7.82,-14.48 -7.82,-45.984 0,-31.504 1.61,-39.094 7.82,-45.996 4.6,-5.285 11.96,-8.735 20.7,-8.735 8.73,0 15.86,3.45 20.46,8.735 6.21,6.902 8.05,14.492 8.05,45.996 0,31.504 -1.84,39.09 -8.05,45.984" /><path
         id="path36"
         style="fill:#0d7a3f;fill-opacity:1;fill-rule:nonzero;stroke:none"
         d="m 2462.3,988.809 v -40.246 h 64.61 v -28.512 h -64.61 v -66.457 h -31.96 v 163.716 h 107.84 v -28.501 h -75.88" /><path
         id="path38"
         style="fill:#0d7a3f;fill-opacity:1;fill-rule:nonzero;stroke:none"
         d="m 2710.23,853.594 -9.66,28.976 h -58.18 l -9.89,-28.976 h -33.34 l 59.55,163.716 h 25.07 l 59.79,-163.716 z m -38.18,115.441 -20.69,-59.562 h 40.69 z" /><path
         id="path40"
         style="fill:#0d7a3f;fill-opacity:1;fill-rule:nonzero;stroke:none"
         d="m 2770.66,853.594 v 163.716 h 31.96 V 882.109 h 74.27 v -28.515 h -106.23" /><path
         id="path42"
         style="fill:#0d7a3f;fill-opacity:1;fill-rule:nonzero;stroke:none"
         d="m 2975.23,853.594 h -68.53 v 163.716 h 65.77 c 31.96,0 50.59,-17.923 50.59,-45.982 0,-18.164 -11.96,-29.894 -20.24,-33.797 9.89,-4.601 22.54,-14.953 22.54,-36.801 0,-30.585 -20.93,-47.136 -50.13,-47.136 z m -5.29,135.215 h -31.27 v -37.715 h 31.27 c 13.57,0 21.15,7.59 21.15,18.859 0,11.27 -7.58,18.856 -21.15,18.856 z m 2.07,-66.457 h -33.34 v -40.243 h 33.34 c 14.49,0 21.38,9.2 21.38,20.235 0,11.035 -6.89,20.008 -21.38,20.008" /><path
         id="path44"
         style="fill:#0d7a3f;fill-opacity:1;fill-rule:nonzero;stroke:none"
         d="m 3060.23,853.594 v 163.716 h 107.85 v -28.501 h -75.89 v -38.411 h 64.62 v -28.511 h -64.62 v -39.778 h 75.89 v -28.515 h -107.85" /><path
         id="path46"
         style="fill:#0d7a3f;fill-opacity:1;fill-rule:nonzero;stroke:none"
         d="m 3289.06,853.594 -31.97,65.301 h -22.99 v -65.301 h -31.96 v 163.716 h 64.15 c 33.35,0 53.12,-22.759 53.12,-50.122 0,-23 -14.02,-37.247 -29.89,-43 l 36.56,-70.594 z m -24.84,135.215 h -30.12 v -43.231 h 30.12 c 14.03,0 23.23,8.965 23.23,21.61 0,12.648 -9.2,21.621 -23.23,21.621" /><path
         id="path48"
         style="fill:#0d7a3f;fill-opacity:1;fill-rule:nonzero;stroke:none"
         d="M 3415.33,988.809 V 853.594 h -31.96 v 135.215 h -42.77 v 28.501 h 117.51 v -28.501 h -42.78" /><path
         id="path50"
         style="fill:#0d7a3f;fill-opacity:1;fill-rule:nonzero;stroke:none"
         d="m 3568.28,853.594 -9.66,28.976 h -58.18 l -9.89,-28.976 h -33.34 l 59.56,163.716 h 25.06 l 59.79,-163.716 z m -38.18,115.441 -20.69,-59.562 h 40.7 z" /><path
         id="path52"
         style="fill:#0d7a3f;fill-opacity:1;fill-rule:nonzero;stroke:none"
         d="m 929.313,745.332 v -65.48 h 77.977 v -17 h -77.977 v -78.477 h -19 v 177.961 h 110.477 v -17.004 h -91.477" /><path
         id="path54"
         style="fill:#0d7a3f;fill-opacity:1;fill-rule:nonzero;stroke:none"
         d="m 1148.68,584.375 -14.25,40.246 h -77.73 l -14.24,-40.246 h -20.25 l 65.49,177.961 h 15.99 l 65.24,-177.961 z m -52.73,150.715 -33.5,-93.977 h 66.49 z" /><path
         id="path56"
         style="fill:#0d7a3f;fill-opacity:1;fill-rule:nonzero;stroke:none"
         d="m 1250.52,582.871 c -17.5,0 -33.49,6.504 -45.49,18.496 -16.75,16.75 -16.75,34.25 -16.75,71.985 0,37.742 0,55.242 16.75,71.98 12,12.004 27.99,18.496 45.49,18.496 31.99,0 55.73,-19.492 61.73,-52.988 h -19.49 c -4.75,21.75 -19.99,35.996 -42.24,35.996 -11.75,0 -23,-4.5 -30.74,-12.5 -11.25,-11.492 -12.5,-23.738 -12.5,-60.984 0,-37.239 1.25,-49.485 12.5,-60.977 7.74,-8.008 18.99,-12.5 30.74,-12.5 22.25,0 37.99,14.246 42.74,35.984 h 18.99 c -5.75,-33.484 -29.99,-52.988 -61.73,-52.988" /><path
         id="path58"
         style="fill:#0d7a3f;fill-opacity:1;fill-rule:nonzero;stroke:none"
         d="m 1410.32,582.871 c -35.99,0 -61.99,24.746 -61.99,60.246 v 119.219 h 19 V 644.609 c 0,-26.992 16.99,-44.734 42.99,-44.734 25.99,0 43.23,17.742 43.23,44.734 v 117.727 h 19 V 643.117 c 0,-35.5 -26.24,-60.246 -62.23,-60.246" /><path
         id="path60"
         style="fill:#0d7a3f;fill-opacity:1;fill-rule:nonzero;stroke:none"
         d="m 1516.51,584.375 v 177.961 h 19 V 601.367 h 90.97 v -16.992 h -109.97" /><path
         id="path62"
         style="fill:#0d7a3f;fill-opacity:1;fill-rule:nonzero;stroke:none"
         d="M 1694.52,745.332 V 584.375 h -18.99 v 160.957 h -51.49 v 17.004 h 121.97 v -17.004 h -51.49" /><path
         id="path64"
         style="fill:#0d7a3f;fill-opacity:1;fill-rule:nonzero;stroke:none"
         d="m 1839.27,657.863 v -73.488 h -19 v 73.488 l -52.98,104.473 h 20.5 l 41.98,-85.234 41.49,85.234 h 20.5 l -52.49,-104.473" /><path
         id="path66"
         style="fill:#0d7a3f;fill-opacity:1;fill-rule:nonzero;stroke:none"
         d="m 2080.25,601.367 c -12,-11.992 -27.75,-18.496 -45.49,-18.496 -17.74,0 -33.49,6.504 -45.49,18.496 -16.75,16.75 -16.75,34.25 -16.75,71.985 0,37.742 0,55.242 16.75,71.98 12,12.004 27.75,18.496 45.49,18.496 17.74,0 33.49,-6.492 45.49,-18.496 16.75,-16.738 16.75,-34.238 16.75,-71.98 0,-37.735 0,-55.235 -16.75,-71.985 z m -14.75,132.727 c -7.75,7.996 -18.99,12.742 -30.74,12.742 -11.75,0 -22.99,-4.746 -30.74,-12.742 -11.25,-11.504 -12.5,-23.496 -12.5,-60.742 0,-37.239 1.25,-49.239 12.5,-60.735 7.75,-7.996 18.99,-12.742 30.74,-12.742 11.75,0 22.99,4.746 30.74,12.742 11.25,11.496 12.5,23.496 12.5,60.735 0,37.246 -1.25,49.238 -12.5,60.742" /><path
         id="path68"
         style="fill:#0d7a3f;fill-opacity:1;fill-rule:nonzero;stroke:none"
         d="m 2156.5,745.332 v -65.48 h 77.98 v -17 h -77.98 v -78.477 h -19 v 177.961 h 110.47 v -17.004 h -91.47" /><path
         id="path70"
         style="fill:#0d7a3f;fill-opacity:1;fill-rule:nonzero;stroke:none"
         d="M 2469.46,584.375 V 719.59 l -48.74,-107.215 h -16.24 L 2354.99,719.59 V 584.375 h -19 v 177.961 h 19 l 57.98,-126.223 56.49,126.223 h 19 V 584.375 h -19" /><path
         id="path72"
         style="fill:#0d7a3f;fill-opacity:1;fill-rule:nonzero;stroke:none"
         d="m 2534.24,584.375 v 177.961 h 110.47 v -17.004 h -91.47 v -62.734 h 77.97 v -16.993 h -77.97 v -64.238 h 91.47 v -16.992 h -110.47" /><path
         id="path74"
         style="fill:#0d7a3f;fill-opacity:1;fill-rule:nonzero;stroke:none"
         d="m 2786.64,600.871 c -10.75,-10.742 -26.49,-16.496 -44.99,-16.496 h -60.99 v 177.961 h 60.99 c 18.5,0 34.24,-5.754 44.99,-16.496 18.5,-18.496 17.5,-45.742 17.5,-70.488 0,-24.747 1,-55.985 -17.5,-74.481 z m -13.25,131.465 c -9.25,9.5 -21.24,12.996 -34.99,12.996 h -38.74 V 601.367 h 38.74 c 13.75,0 25.74,3.508 34.99,13 12.25,12.754 11.75,39.235 11.75,60.985 0,21.75 0.5,44.238 -11.75,56.984" /><path
         id="path76"
         style="fill:#0d7a3f;fill-opacity:1;fill-rule:nonzero;stroke:none"
         d="m 2843.98,584.375 v 177.961 h 19 V 584.375 h -19" /><path
         id="path78"
         style="fill:#0d7a3f;fill-opacity:1;fill-rule:nonzero;stroke:none"
         d="m 2965.47,582.871 c -17.49,0 -33.49,6.504 -45.49,18.496 -16.74,16.75 -16.74,34.25 -16.74,71.985 0,37.742 0,55.242 16.74,71.98 12,12.004 28,18.496 45.49,18.496 31.99,0 55.74,-19.492 61.74,-52.988 h -19.5 c -4.75,21.75 -19.99,35.996 -42.24,35.996 -11.74,0 -22.99,-4.5 -30.74,-12.5 -11.25,-11.492 -12.49,-23.738 -12.49,-60.984 0,-37.239 1.24,-49.485 12.49,-60.977 7.75,-8.008 19,-12.5 30.74,-12.5 22.25,0 37.99,14.246 42.74,35.984 h 19 c -5.75,-33.484 -29.99,-52.988 -61.74,-52.988" /><path
         id="path80"
         style="fill:#0d7a3f;fill-opacity:1;fill-rule:nonzero;stroke:none"
         d="m 3064.51,584.375 v 177.961 h 19 V 584.375 h -19" /><path
         id="path82"
         style="fill:#0d7a3f;fill-opacity:1;fill-rule:nonzero;stroke:none"
         d="M 3242.13,584.375 3147.65,727.09 V 584.375 h -19 v 177.961 h 18 l 94.48,-142.219 v 142.219 h 18.99 V 584.375 h -17.99" /><path
         id="path84"
         style="fill:#0d7a3f;fill-opacity:1;fill-rule:nonzero;stroke:none"
         d="m 3305.78,584.375 v 177.961 h 110.47 v -17.004 h -91.47 v -62.734 h 77.97 v -16.993 h -77.97 v -64.238 h 91.47 v -16.992 h -110.47" /><path
         id="path86"
         style="fill:#0d7a3f;fill-opacity:1;fill-rule:nonzero;stroke:none"
         d="m 3633.75,584.375 -16,19.492 c -7.25,-6.746 -24,-20.996 -52.48,-20.996 -34.5,0 -56.25,20.754 -56.25,51.738 0,26.746 19,40.243 38.5,53.243 -8.75,10.5 -19.25,22.746 -19.25,38.742 0,21.238 16.5,37.234 39.24,37.234 22.25,0 38.74,-16.238 38.74,-37.488 0,-14.25 -8.5,-23.996 -19.74,-31.738 0,0 -9,-6 -13.25,-9.004 l 45.49,-54.739 c 7.25,11.008 9.75,20.754 10,40.743 h 17.99 c -0.24,-22.489 -5,-40.743 -16.49,-54.481 l 27.24,-32.746 z m -75.74,91.477 c -15.24,-10.5 -30.49,-20.489 -30.49,-40.735 0,-21.25 15.5,-35.496 37.49,-35.496 13.25,0 26.75,3.504 41.99,17.246 z m 9.5,71.738 c -12.24,0 -20.49,-8.75 -20.49,-20.754 0,-8.242 4.25,-14.988 15.99,-29.238 3,2.004 9.5,6.496 9.5,6.496 8.25,5.75 16,12 16,22.246 0,12 -9,21.25 -21,21.25" /><path
         id="path88"
         style="fill:#0d7a3f;fill-opacity:1;fill-rule:nonzero;stroke:none"
         d="m 3853.5,600.871 c -10.75,-10.742 -26.5,-16.496 -44.99,-16.496 h -60.99 v 177.961 h 60.99 c 18.49,0 34.24,-5.754 44.99,-16.496 18.49,-18.496 17.49,-45.742 17.49,-70.488 0,-24.747 1,-55.985 -17.49,-74.481 z m -13.25,131.465 c -9.25,9.5 -21.25,12.996 -34.99,12.996 h -38.74 V 601.367 h 38.74 c 13.74,0 25.74,3.508 34.99,13 12.25,12.754 11.75,39.235 11.75,60.985 0,21.75 0.5,44.238 -11.75,56.984" /><path
         id="path90"
         style="fill:#0d7a3f;fill-opacity:1;fill-rule:nonzero;stroke:none"
         d="m 3910.97,584.375 v 177.961 h 110.47 v -17.004 h -91.48 v -62.734 h 77.99 v -16.993 h -77.99 v -64.238 h 91.48 v -16.992 h -110.47" /><path
         id="path92"
         style="fill:#0d7a3f;fill-opacity:1;fill-rule:nonzero;stroke:none"
         d="M 4170.86,584.375 4076.39,727.09 V 584.375 h -19 v 177.961 h 18 l 94.48,-142.219 v 142.219 h 18.99 V 584.375 h -18" /><path
         id="path94"
         style="fill:#0d7a3f;fill-opacity:1;fill-rule:nonzero;stroke:none"
         d="M 4292.38,745.332 V 584.375 h -19 v 160.957 h -51.48 v 17.004 h 121.97 v -17.004 h -51.49" /><path
         id="path96"
         style="fill:#0d7a3f;fill-opacity:1;fill-rule:nonzero;stroke:none"
         d="m 4376.76,584.375 v 177.961 h 19 V 584.375 h -19" /><path
         id="path98"
         style="fill:#0d7a3f;fill-opacity:1;fill-rule:nonzero;stroke:none"
         d="m 4490.83,582.871 c -26.74,0 -44.24,6.75 -60.99,23.496 l 13,13 c 14.75,-14.746 28.49,-19.492 48.49,-19.492 25.99,0 41.99,12.246 41.99,32.988 0,9.246 -2.75,17.242 -8.5,22.242 -5.75,5 -10.25,6.497 -23.24,8.497 l -20.75,3.253 c -13.99,2.247 -24.99,6.747 -32.74,13.497 -9,8 -13.5,18.996 -13.5,33.242 0,30.246 21.75,50.234 56.99,50.234 22.74,0 37.74,-5.742 52.99,-19.492 l -12.25,-12.246 c -11,10 -22.75,15.246 -41.49,15.246 -23.74,0 -37.49,-13.242 -37.49,-32.988 0,-8.75 2.5,-15.754 8,-20.5 5.5,-4.746 14.75,-8.25 23.99,-9.746 l 19.49,-3 c 16.75,-2.5 25,-5.997 32.5,-12.5 9.75,-8.239 15,-20.497 15,-35.243 0,-31.238 -24.5,-50.488 -61.49,-50.488" /><path
         id="path100"
         style="fill:#0d7a3f;fill-opacity:1;fill-rule:nonzero;stroke:none"
         d="M 4646,745.332 V 584.375 h -19 v 160.957 h -51.48 v 17.004 h 121.96 V 745.332 H 4646" /><path
         id="path102"
         style="fill:#0d7a3f;fill-opacity:1;fill-rule:nonzero;stroke:none"
         d="m 4832.61,584.375 -40.49,78.984 h -42.74 v -78.984 h -19 v 177.961 h 68.23 c 31,0 52.74,-18.75 52.74,-49.492 0,-25.996 -15.74,-42.992 -38.74,-47.739 l 42.25,-80.73 z m -35.74,160.957 h -47.49 v -65.234 h 47.49 c 20.74,0 35.49,10.754 35.49,32.5 0,21.738 -14.75,32.734 -35.49,32.734" /><path
         id="path104"
         style="fill:#0d7a3f;fill-opacity:1;fill-rule:nonzero;stroke:none"
         d="m 4941.37,657.863 v -73.488 h -18.99 v 73.488 l -52.99,104.473 h 20.49 l 41.99,-85.234 41.49,85.234 h 20.5 l -52.49,-104.473" /><path
         id="path106"
         style="fill:#0d7a3f;fill-opacity:1;fill-rule:nonzero;stroke:none"
         d="m 974.152,383.262 c -7.648,-7.645 -18.699,-11.387 -31.277,-11.387 h -42.492 v 121.023 h 42.492 c 12.578,0 23.629,-3.738 31.277,-11.382 13.09,-13.086 12.239,-30.762 12.239,-48.274 0,-17.512 0.851,-36.887 -12.239,-49.98 z m -12.578,84.992 c -5.097,5.613 -11.902,8.164 -20.566,8.164 h -22.274 v -88.059 h 22.274 c 8.664,0 15.469,2.551 20.566,8.164 6.289,6.973 6.457,20.059 6.457,36.719 0,16.649 -0.168,28.047 -6.457,35.012" /><path
         id="path108"
         style="fill:#0d7a3f;fill-opacity:1;fill-rule:nonzero;stroke:none"
         d="m 1020.59,409.953 c 0,-14.785 7.81,-24.144 21.93,-24.144 9.68,0 14.78,2.726 20.9,8.839 l 11.05,-10.359 c -8.84,-8.84 -17.17,-13.43 -32.3,-13.43 -21.58,0 -38.75,11.387 -38.75,44.192 0,27.879 14.45,44.023 36.54,44.023 23.12,0 36.55,-16.992 36.55,-41.476 v -7.645 z m 36.37,23.797 c -2.72,6.457 -8.84,10.879 -17,10.879 -8.16,0 -14.45,-4.422 -17.17,-10.879 -1.7,-3.906 -2.03,-6.465 -2.2,-11.73 h 38.75 c -0.17,5.265 -0.68,7.824 -2.38,11.73" /><path
         id="path110"
         style="fill:#0d7a3f;fill-opacity:1;fill-rule:nonzero;stroke:none"
         d="m 1155.96,378.508 c -4.76,-4.766 -12.24,-7.649 -20.91,-7.649 -9.17,0 -16.32,2.371 -22.6,9.856 v -43.684 h -17.34 v 121.028 h 17 v -9.18 c 6.46,7.82 13.42,10.195 22.77,10.195 8.67,0 16.32,-2.89 21.08,-7.648 8.67,-8.672 9.69,-23.289 9.69,-36.375 0,-13.086 -1.02,-27.871 -9.69,-36.543 z m -25.5,65.094 c -15.64,0 -18.01,-13.25 -18.01,-28.551 0,-15.293 2.37,-28.723 18.01,-28.723 15.65,0 17.85,13.43 17.85,28.723 0,15.301 -2.2,28.551 -17.85,28.551" /><path
         id="path112"
         style="fill:#0d7a3f;fill-opacity:1;fill-rule:nonzero;stroke:none"
         d="m 1232.75,371.875 v 7.824 c -6.29,-6.289 -12.24,-8.84 -22.95,-8.84 -10.7,0 -17.84,2.551 -23.12,7.813 -4.41,4.59 -6.79,11.219 -6.79,18.535 0,14.441 10.03,24.813 29.74,24.813 h 22.78 v 6.117 c 0,10.879 -5.44,16.152 -18.86,16.152 -9.53,0 -14.12,-2.207 -18.87,-8.332 l -11.39,10.715 c 8.16,9.512 16.66,12.402 30.93,12.402 23.63,0 35.53,-10.031 35.53,-29.57 v -57.629 z m -0.34,38.078 h -20.23 c -10.19,0 -15.47,-4.59 -15.47,-12.414 0,-7.812 4.93,-12.234 15.81,-12.234 6.64,0 11.56,0.504 16.15,4.929 2.55,2.551 3.74,6.633 3.74,12.743 v 6.976" /><path
         id="path114"
         style="fill:#0d7a3f;fill-opacity:1;fill-rule:nonzero;stroke:none"
         d="m 1319.41,437.832 c -3.9,3.906 -6.96,5.77 -12.91,5.77 -9.35,0 -17.17,-7.469 -17.17,-19.375 v -52.352 h -17.34 v 86.184 h 17 v -9.348 c 4.42,6.113 13.26,10.363 22.95,10.363 8.33,0 14.62,-2.207 20.56,-8.156 l -13.09,-13.086" /><path
         id="path116"
         style="fill:#0d7a3f;fill-opacity:1;fill-rule:nonzero;stroke:none"
         d="m 1375.16,371.875 c -16.15,0 -23.62,11.563 -23.62,23.965 v 47.43 h -9.87 v 13.253 h 9.87 v 26.184 h 17.33 v -26.184 h 16.66 V 443.27 h -16.66 v -46.582 c 0,-6.29 3.06,-10.028 9.52,-10.028 h 7.14 v -14.785 h -10.37" /><path
         id="path118"
         style="fill:#0d7a3f;fill-opacity:1;fill-rule:nonzero;stroke:none"
         d="m 1507.5,371.875 v 52.531 c 0,13.426 -7.66,19.196 -17.34,19.196 -9.36,0 -17.85,-5.946 -17.85,-18.348 v -53.379 h -17.34 v 52.531 c 0,13.426 -7.65,19.196 -17.34,19.196 -9.68,0 -17.84,-5.946 -17.84,-19.196 v -52.531 h -17.34 v 86.184 h 17 v -8.672 c 5.78,6.289 14.27,9.687 22.94,9.687 10.71,0 19.04,-4.25 24.48,-12.578 6.97,8.504 15.64,12.578 27.03,12.578 8.83,0 16.66,-2.89 21.76,-7.812 6.63,-6.465 9.18,-14.621 9.18,-24.309 v -55.078 h -17.34" /><path
         id="path120"
         style="fill:#0d7a3f;fill-opacity:1;fill-rule:nonzero;stroke:none"
         d="m 1560.18,409.953 c 0,-14.785 7.81,-24.144 21.93,-24.144 9.68,0 14.78,2.726 20.9,8.839 l 11.05,-10.359 c -8.84,-8.84 -17.17,-13.43 -32.3,-13.43 -21.58,0 -38.75,11.387 -38.75,44.192 0,27.879 14.45,44.023 36.54,44.023 23.12,0 36.55,-16.992 36.55,-41.476 v -7.645 z m 36.37,23.797 c -2.72,6.457 -8.84,10.879 -17,10.879 -8.16,0 -14.45,-4.422 -17.17,-10.879 -1.7,-3.906 -2.03,-6.465 -2.2,-11.73 h 38.75 c -0.17,5.265 -0.68,7.824 -2.38,11.73" /><path
         id="path122"
         style="fill:#0d7a3f;fill-opacity:1;fill-rule:nonzero;stroke:none"
         d="m 1687.22,371.875 v 52.531 c 0,13.426 -7.65,19.196 -17.34,19.196 -9.68,0 -17.84,-5.946 -17.84,-19.196 v -52.531 h -17.34 v 86.184 h 17 v -8.672 c 5.95,6.465 14.27,9.687 22.94,9.687 8.84,0 16.15,-2.89 21.25,-7.812 6.63,-6.465 8.67,-14.621 8.67,-24.309 v -55.078 h -17.34" /><path
         id="path124"
         style="fill:#0d7a3f;fill-opacity:1;fill-rule:nonzero;stroke:none"
         d="m 1752.34,371.875 c -16.16,0 -23.63,11.563 -23.63,23.965 v 47.43 h -9.87 v 13.253 h 9.87 v 26.184 h 17.33 v -26.184 h 16.66 V 443.27 h -16.66 v -46.582 c 0,-6.29 3.06,-10.028 9.52,-10.028 h 7.14 v -14.785 h -10.36" /><path
         id="path126"
         style="fill:#0d7a3f;fill-opacity:1;fill-rule:nonzero;stroke:none"
         d="m 1876.43,381.055 c -5.61,-5.782 -14.11,-10.196 -25.84,-10.196 -11.73,0 -20.06,4.414 -25.67,10.196 -8.16,8.496 -10.2,19.375 -10.2,33.996 0,14.453 2.04,25.332 10.2,33.828 5.61,5.781 13.94,10.195 25.67,10.195 11.73,0 20.23,-4.414 25.84,-10.195 8.16,-8.496 10.2,-19.375 10.2,-33.828 0,-14.621 -2.04,-25.5 -10.2,-33.996 z m -13.09,57.629 c -3.23,3.222 -7.65,4.918 -12.75,4.918 -5.1,0 -9.35,-1.696 -12.58,-4.918 -5.27,-5.274 -5.95,-14.278 -5.95,-23.633 0,-9.348 0.68,-18.363 5.95,-23.625 3.23,-3.231 7.48,-5.098 12.58,-5.098 5.1,0 9.52,1.867 12.75,5.098 5.27,5.262 5.95,14.277 5.95,23.625 0,9.355 -0.68,18.359 -5.95,23.633" /><path
         id="path128"
         style="fill:#0d7a3f;fill-opacity:1;fill-rule:nonzero;stroke:none"
         d="m 1925.58,443.27 v -71.395 h -17.34 v 71.395 h -9.86 v 13.253 h 9.86 v 13.262 c 0,12.414 7.48,23.965 23.63,23.965 h 10.88 v -14.785 h -7.66 c -6.46,0 -9.51,-3.738 -9.51,-10.031 v -12.411 h 17.17 V 443.27 h -17.17" /><path
         id="path130"
         style="fill:#0d7a3f;fill-opacity:1;fill-rule:nonzero;stroke:none"
         d="m 2064.11,371.875 -25.5,50.996 h -22.95 v -50.996 h -18.35 v 121.023 h 46.91 c 22.95,0 37.57,-14.781 37.57,-35.347 0,-17.344 -10.54,-28.391 -24.14,-32.129 l 27.88,-53.547 z m -21.25,104.543 h -27.2 v -37.91 h 27.2 c 12.24,0 20.57,6.969 20.57,18.867 0,11.902 -8.33,19.043 -20.57,19.043" /><path
         id="path132"
         style="fill:#0d7a3f;fill-opacity:1;fill-rule:nonzero;stroke:none"
         d="m 2148.61,371.875 v 7.824 c -6.29,-6.289 -12.25,-8.84 -22.95,-8.84 -10.71,0 -17.85,2.551 -23.12,7.813 -4.42,4.59 -6.8,11.219 -6.8,18.535 0,14.441 10.03,24.813 29.74,24.813 h 22.78 v 6.117 c 0,10.879 -5.44,16.152 -18.87,16.152 -9.51,0 -14.1,-2.207 -18.86,-8.332 l -11.39,10.715 c 8.16,9.512 16.66,12.402 30.93,12.402 23.63,0 35.53,-10.031 35.53,-29.57 v -57.629 z m -0.35,38.078 h -20.23 c -10.19,0 -15.47,-4.59 -15.47,-12.414 0,-7.812 4.94,-12.234 15.82,-12.234 6.62,0 11.55,0.504 16.14,4.929 2.55,2.551 3.74,6.633 3.74,12.743 v 6.976" /><path
         id="path134"
         style="fill:#0d7a3f;fill-opacity:1;fill-rule:nonzero;stroke:none"
         d="m 2238.05,371.875 v 9.18 c -6.46,-7.825 -13.42,-10.196 -22.78,-10.196 -8.66,0 -16.31,2.883 -21.07,7.649 -8.67,8.672 -9.69,23.457 -9.69,36.543 0,13.086 1.02,27.703 9.69,36.375 4.76,4.758 12.24,7.648 20.91,7.648 9.17,0 16.32,-2.207 22.6,-9.687 v 43.511 h 17.34 V 371.875 Z m -18.19,71.727 c -15.63,0 -18.01,-13.25 -18.01,-28.551 0,-15.293 2.38,-28.723 18.01,-28.723 15.64,0 17.85,13.43 17.85,28.723 0,15.301 -2.21,28.551 -17.85,28.551" /><path
         id="path136"
         style="fill:#0d7a3f;fill-opacity:1;fill-rule:nonzero;stroke:none"
         d="m 2277.38,475.059 v 18.351 h 18.36 v -18.351 z m 0.51,-103.184 v 86.184 h 17.34 v -86.184 h -17.34" /><path
         id="path138"
         style="fill:#0d7a3f;fill-opacity:1;fill-rule:nonzero;stroke:none"
         d="m 2375.87,381.055 c -5.61,-5.782 -14.11,-10.196 -25.83,-10.196 -11.74,0 -20.06,4.414 -25.67,10.196 -8.16,8.496 -10.21,19.375 -10.21,33.996 0,14.453 2.05,25.332 10.21,33.828 5.61,5.781 13.93,10.195 25.67,10.195 11.72,0 20.22,-4.414 25.83,-10.195 8.16,-8.496 10.2,-19.375 10.2,-33.828 0,-14.621 -2.04,-25.5 -10.2,-33.996 z m -13.08,57.629 c -3.24,3.222 -7.66,4.918 -12.75,4.918 -5.11,0 -9.36,-1.696 -12.58,-4.918 -5.28,-5.274 -5.96,-14.278 -5.96,-23.633 0,-9.348 0.68,-18.363 5.96,-23.625 3.22,-3.231 7.47,-5.098 12.58,-5.098 5.09,0 9.51,1.867 12.75,5.098 5.26,5.262 5.94,14.277 5.94,23.625 0,9.355 -0.68,18.359 -5.94,23.633" /><path
         id="path140"
         style="fill:#0d7a3f;fill-opacity:1;fill-rule:nonzero;stroke:none"
         d="m 2428.3,371.875 c -16.49,0 -23.63,11.047 -23.63,23.801 v 97.222 h 17.34 v -96.21 c 0,-6.629 2.38,-10.028 9.35,-10.028 h 7.64 v -14.785 h -10.7" /><path
         id="path142"
         style="fill:#0d7a3f;fill-opacity:1;fill-rule:nonzero;stroke:none"
         d="m 2511.61,381.055 c -5.61,-5.782 -14.11,-10.196 -25.84,-10.196 -11.73,0 -20.06,4.414 -25.67,10.196 -8.15,8.496 -10.2,19.375 -10.2,33.996 0,14.453 2.05,25.332 10.2,33.828 5.61,5.781 13.94,10.195 25.67,10.195 11.73,0 20.23,-4.414 25.84,-10.195 8.16,-8.496 10.2,-19.375 10.2,-33.828 0,-14.621 -2.04,-25.5 -10.2,-33.996 z m -13.09,57.629 c -3.23,3.222 -7.65,4.918 -12.75,4.918 -5.1,0 -9.35,-1.696 -12.57,-4.918 -5.28,-5.274 -5.96,-14.278 -5.96,-23.633 0,-9.348 0.68,-18.363 5.96,-23.625 3.22,-3.231 7.47,-5.098 12.57,-5.098 5.1,0 9.52,1.867 12.75,5.098 5.27,5.262 5.95,14.277 5.95,23.625 0,9.355 -0.68,18.359 -5.95,23.633" /><path
         id="path144"
         style="fill:#0d7a3f;fill-opacity:1;fill-rule:nonzero;stroke:none"
         d="m 2570.77,336.008 c -13.09,0 -21.41,3.066 -30.43,11.383 l 11.05,11.058 c 5.44,-5.097 10.2,-7.648 18.7,-7.648 14.62,0 20.23,10.363 20.23,21.926 v 11.043 c -6.29,-7.469 -13.43,-9.852 -22.27,-9.852 -8.66,0 -15.81,2.891 -20.57,7.645 -8.32,8.328 -9.69,20.402 -9.69,35.019 0,14.621 1.37,26.688 9.69,35.02 4.76,4.753 12.07,7.472 20.74,7.472 9.18,0 16.15,-2.375 22.61,-10.195 v 9.18 h 16.83 v -85.676 c 0,-21.074 -13.94,-36.375 -36.89,-36.375 z m 2.04,107.594 c -15.64,0 -17.68,-13.426 -17.68,-27.02 0,-13.605 2.04,-27.031 17.68,-27.031 15.64,0 17.51,13.426 17.51,27.031 0,13.594 -1.87,27.02 -17.51,27.02" /><path
         id="path146"
         style="fill:#0d7a3f;fill-opacity:1;fill-rule:nonzero;stroke:none"
         d="m 2660.65,354.707 c -1.7,-4.754 -3.74,-8.164 -6.29,-10.711 -4.76,-4.758 -11.05,-6.289 -17.68,-6.289 h -6.97 v 15.645 h 4.42 c 7.31,0 9.86,2.207 12.41,9.179 l 4.76,13.426 -30.09,82.102 h 18.36 l 20.57,-60.684 20.06,60.684 h 18.53 l -38.08,-103.352" /><path
         id="path148"
         style="fill:#0d7a3f;fill-opacity:1;fill-rule:nonzero;stroke:none"
         d="m 2827.41,371.875 -9.86,11.895 c -5.26,-4.59 -15.12,-12.911 -33.48,-12.911 -25.16,0 -39.1,14.102 -39.1,36.036 0,16.828 12.07,26.347 23.97,34.16 -5.44,6.289 -12.58,14.797 -12.58,26.004 0,15.472 11.56,26.867 29.58,26.867 17.17,0 28.72,-11.563 28.72,-27.031 0,-9.52 -5.27,-16.141 -12.91,-21.418 0,0 -5.95,-4.082 -8.84,-6.122 l 25.49,-30.421 c 4.42,6.293 6.29,13.254 6.46,24.308 h 16.66 c -0.51,-15.469 -3.91,-27.715 -12.07,-37.226 l 20.23,-24.141 z m -48.95,58.301 c -8.84,-6.113 -16.32,-11.727 -16.32,-22.938 0,-12.07 9.35,-20.578 21.93,-20.578 8.16,0 15.13,2.219 23.12,9.356 z m 7.48,48.625 c -7.48,0 -11.9,-5.11 -11.9,-11.906 0,-4.93 3.23,-9.52 9.35,-16.661 1.87,1.192 5.78,3.914 5.78,3.914 4.76,3.227 8.84,6.965 8.84,12.579 0,6.796 -4.93,12.074 -12.07,12.074" /><path
         id="path150"
         style="fill:#0d7a3f;fill-opacity:1;fill-rule:nonzero;stroke:none"
         d="m 2981.09,383.262 c -7.64,-7.645 -18.69,-11.387 -31.27,-11.387 h -42.5 v 121.023 h 42.5 c 12.58,0 23.63,-3.738 31.27,-11.382 13.09,-13.086 12.25,-30.762 12.25,-48.274 0,-17.512 0.84,-36.887 -12.25,-49.98 z m -12.57,84.992 c -5.1,5.613 -11.9,8.164 -20.57,8.164 h -22.27 v -88.059 h 22.27 c 8.67,0 15.47,2.551 20.57,8.164 6.28,6.973 6.46,20.059 6.46,36.719 0,16.649 -0.18,28.047 -6.46,35.012" /><path
         id="path152"
         style="fill:#0d7a3f;fill-opacity:1;fill-rule:nonzero;stroke:none"
         d="m 3014.13,475.059 v 18.351 h 18.36 v -18.351 z m 0.51,-103.184 v 86.184 h 17.34 v -86.184 h -17.34" /><path
         id="path154"
         style="fill:#0d7a3f;fill-opacity:1;fill-rule:nonzero;stroke:none"
         d="m 3101.44,371.875 v 7.824 c -6.29,-6.289 -12.24,-8.84 -22.95,-8.84 -10.71,0 -17.85,2.551 -23.12,7.813 -4.42,4.59 -6.8,11.219 -6.8,18.535 0,14.441 10.03,24.813 29.75,24.813 h 22.77 v 6.117 c 0,10.879 -5.43,16.152 -18.86,16.152 -9.52,0 -14.11,-2.207 -18.87,-8.332 l -11.39,10.715 c 8.16,9.512 16.66,12.402 30.94,12.402 23.63,0 35.52,-10.031 35.52,-29.57 v -57.629 z m -0.35,38.078 h -20.23 c -10.19,0 -15.47,-4.59 -15.47,-12.414 0,-7.812 4.94,-12.234 15.82,-12.234 6.63,0 11.56,0.504 16.15,4.929 2.54,2.551 3.73,6.633 3.73,12.743 v 6.976" /><path
         id="path156"
         style="fill:#0d7a3f;fill-opacity:1;fill-rule:nonzero;stroke:none"
         d="m 3170.08,336.008 c -13.09,0 -21.41,3.066 -30.42,11.383 l 11.04,11.058 c 5.44,-5.097 10.2,-7.648 18.71,-7.648 14.61,0 20.22,10.363 20.22,21.926 v 11.043 c -6.29,-7.469 -13.43,-9.852 -22.27,-9.852 -8.67,0 -15.81,2.891 -20.56,7.645 -8.33,8.328 -9.69,20.402 -9.69,35.019 0,14.621 1.36,26.688 9.69,35.02 4.75,4.753 12.06,7.472 20.74,7.472 9.17,0 16.14,-2.375 22.6,-10.195 v 9.18 h 16.83 v -85.676 c 0,-21.074 -13.94,-36.375 -36.89,-36.375 z m 2.05,107.594 c -15.65,0 -17.68,-13.426 -17.68,-27.02 0,-13.605 2.03,-27.031 17.68,-27.031 15.63,0 17.5,13.426 17.5,27.031 0,13.594 -1.87,27.02 -17.5,27.02" /><path
         id="path158"
         style="fill:#0d7a3f;fill-opacity:1;fill-rule:nonzero;stroke:none"
         d="m 3282.3,371.875 v 52.531 c 0,13.426 -7.66,19.196 -17.34,19.196 -9.69,0 -17.85,-5.946 -17.85,-19.196 v -52.531 h -17.34 v 86.184 h 17 v -8.672 c 5.94,6.465 14.28,9.687 22.95,9.687 8.83,0 16.14,-2.89 21.24,-7.812 6.63,-6.465 8.67,-14.621 8.67,-24.309 v -55.078 h -17.33" /><path
         id="path160"
         style="fill:#0d7a3f;fill-opacity:1;fill-rule:nonzero;stroke:none"
         d="m 3379.77,381.055 c -5.61,-5.782 -14.11,-10.196 -25.83,-10.196 -11.73,0 -20.06,4.414 -25.67,10.196 -8.16,8.496 -10.2,19.375 -10.2,33.996 0,14.453 2.04,25.332 10.2,33.828 5.61,5.781 13.94,10.195 25.67,10.195 11.72,0 20.22,-4.414 25.83,-10.195 8.16,-8.496 10.2,-19.375 10.2,-33.828 0,-14.621 -2.04,-25.5 -10.2,-33.996 z m -13.09,57.629 c -3.23,3.222 -7.64,4.918 -12.74,4.918 -5.11,0 -9.35,-1.696 -12.58,-4.918 -5.27,-5.274 -5.95,-14.278 -5.95,-23.633 0,-9.348 0.68,-18.363 5.95,-23.625 3.23,-3.231 7.47,-5.098 12.58,-5.098 5.1,0 9.51,1.867 12.74,5.098 5.27,5.262 5.95,14.277 5.95,23.625 0,9.355 -0.68,18.359 -5.95,23.633" /><path
         id="path162"
         style="fill:#0d7a3f;fill-opacity:1;fill-rule:nonzero;stroke:none"
         d="m 3437.25,370.859 c -14.11,0 -26,2.371 -36.2,12.403 l 11.38,11.386 c 6.98,-7.136 16.32,-9.003 24.82,-9.003 10.54,0 18.87,3.742 18.87,11.894 0,5.781 -3.23,9.52 -11.56,10.207 l -13.77,1.188 c -16.15,1.359 -25.5,8.664 -25.5,23.793 0,16.832 14.45,26.347 32.48,26.347 12.91,0 23.96,-2.719 31.95,-9.687 l -10.88,-11.047 c -5.44,4.59 -13.09,6.289 -21.25,6.289 -10.37,0 -15.64,-4.59 -15.64,-11.055 0,-5.097 2.72,-9.004 11.9,-9.851 l 13.6,-1.192 c 16.15,-1.359 25.67,-9.008 25.67,-24.308 0,-18.016 -15.3,-27.364 -35.87,-27.364" /><path
         id="path164"
         style="fill:#0d7a3f;fill-opacity:1;fill-rule:nonzero;stroke:none"
         d="m 3517.51,371.875 c -16.15,0 -23.63,11.563 -23.63,23.965 v 47.43 h -9.86 v 13.253 h 9.86 v 26.184 h 17.33 v -26.184 h 16.67 V 443.27 h -16.67 v -46.582 c 0,-6.29 3.07,-10.028 9.53,-10.028 h 7.14 v -14.785 h -10.37" /><path
         id="path166"
         style="fill:#0d7a3f;fill-opacity:1;fill-rule:nonzero;stroke:none"
         d="m 3544.28,475.059 v 18.351 h 18.36 v -18.351 z m 0.52,-103.184 v 86.184 h 17.33 v -86.184 h -17.33" /><path
         id="path168"
         style="fill:#0d7a3f;fill-opacity:1;fill-rule:nonzero;stroke:none"
         d="m 3619.04,370.859 c -19.37,0 -38.41,11.895 -38.41,44.192 0,32.293 19.04,44.023 38.41,44.023 11.9,0 20.23,-3.398 28.39,-12.062 l -11.9,-11.563 c -5.44,5.946 -9.69,8.153 -16.49,8.153 -6.62,0 -12.23,-2.711 -15.97,-7.645 -3.74,-4.754 -5.1,-10.879 -5.1,-20.906 0,-10.031 1.36,-16.321 5.1,-21.074 3.74,-4.934 9.35,-7.649 15.97,-7.649 6.8,0 11.05,2.207 16.49,8.152 l 11.9,-11.382 c -8.16,-8.672 -16.49,-12.239 -28.39,-12.239" /><path
         id="path170"
         style="fill:#0d7a3f;fill-opacity:1;fill-rule:nonzero;stroke:none"
         d="m 3703.53,371.875 v 121.023 h 18.36 V 371.875 h -18.36" /><path
         id="path172"
         style="fill:#0d7a3f;fill-opacity:1;fill-rule:nonzero;stroke:none"
         d="m 3851.4,371.875 v 52.531 c 0,13.426 -7.65,19.196 -17.34,19.196 -9.35,0 -17.85,-5.946 -17.85,-18.348 v -53.379 h -17.33 v 52.531 c 0,13.426 -7.65,19.196 -17.34,19.196 -9.69,0 -17.85,-5.946 -17.85,-19.196 v -52.531 h -17.34 v 86.184 h 17 v -8.672 c 5.78,6.289 14.28,9.687 22.95,9.687 10.71,0 19.04,-4.25 24.48,-12.578 6.97,8.504 15.64,12.578 27.02,12.578 8.84,0 16.66,-2.89 21.76,-7.812 6.63,-6.465 9.18,-14.621 9.18,-24.309 v -55.078 h -17.34" /><path
         id="path174"
         style="fill:#0d7a3f;fill-opacity:1;fill-rule:nonzero;stroke:none"
         d="m 3937.88,371.875 v 7.824 c -6.29,-6.289 -12.24,-8.84 -22.95,-8.84 -10.71,0 -17.85,2.551 -23.12,7.813 -4.42,4.59 -6.8,11.219 -6.8,18.535 0,14.441 10.03,24.813 29.75,24.813 h 22.78 v 6.117 c 0,10.879 -5.45,16.152 -18.87,16.152 -9.53,0 -14.12,-2.207 -18.87,-8.332 l -11.39,10.715 c 8.16,9.512 16.66,12.402 30.94,12.402 23.62,0 35.53,-10.031 35.53,-29.57 v -57.629 z m -0.34,38.078 h -20.24 c -10.19,0 -15.46,-4.59 -15.46,-12.414 0,-7.812 4.93,-12.234 15.81,-12.234 6.63,0 11.55,0.504 16.14,4.929 2.55,2.551 3.75,6.633 3.75,12.743 v 6.976" /><path
         id="path176"
         style="fill:#0d7a3f;fill-opacity:1;fill-rule:nonzero;stroke:none"
         d="m 4006.48,336.008 c -13.09,0 -21.41,3.066 -30.43,11.383 l 11.06,11.058 c 5.43,-5.097 10.19,-7.648 18.69,-7.648 14.63,0 20.23,10.363 20.23,21.926 v 11.043 c -6.29,-7.469 -13.43,-9.852 -22.26,-9.852 -8.67,0 -15.82,2.891 -20.57,7.645 -8.33,8.328 -9.69,20.402 -9.69,35.019 0,14.621 1.36,26.688 9.69,35.02 4.75,4.753 12.07,7.472 20.74,7.472 9.18,0 16.14,-2.375 22.6,-10.195 v 9.18 h 16.83 v -85.676 c 0,-21.074 -13.94,-36.375 -36.89,-36.375 z m 2.05,107.594 c -15.64,0 -17.69,-13.426 -17.69,-27.02 0,-13.605 2.05,-27.031 17.69,-27.031 15.63,0 17.5,13.426 17.5,27.031 0,13.594 -1.87,27.02 -17.5,27.02" /><path
         id="path178"
         style="fill:#0d7a3f;fill-opacity:1;fill-rule:nonzero;stroke:none"
         d="m 4065.7,475.059 v 18.351 h 18.36 v -18.351 z m 0.51,-103.184 v 86.184 h 17.34 v -86.184 h -17.34" /><path
         id="path180"
         style="fill:#0d7a3f;fill-opacity:1;fill-rule:nonzero;stroke:none"
         d="m 4158.73,371.875 v 52.531 c 0,13.426 -7.65,19.196 -17.34,19.196 -9.69,0 -17.84,-5.946 -17.84,-19.196 v -52.531 h -17.34 v 86.184 h 16.99 v -8.672 c 5.95,6.465 14.28,9.687 22.95,9.687 8.84,0 16.15,-2.89 21.25,-7.812 6.63,-6.465 8.67,-14.621 8.67,-24.309 v -55.078 h -17.34" /><path
         id="path182"
         style="fill:#0d7a3f;fill-opacity:1;fill-rule:nonzero;stroke:none"
         d="m 4227.72,336.008 c -13.09,0 -21.42,3.066 -30.42,11.383 l 11.04,11.058 c 5.44,-5.097 10.2,-7.648 18.7,-7.648 14.62,0 20.23,10.363 20.23,21.926 v 11.043 c -6.29,-7.469 -13.43,-9.852 -22.27,-9.852 -8.67,0 -15.81,2.891 -20.57,7.645 -8.32,8.328 -9.69,20.402 -9.69,35.019 0,14.621 1.37,26.688 9.69,35.02 4.76,4.753 12.07,7.472 20.74,7.472 9.18,0 16.15,-2.375 22.61,-10.195 v 9.18 h 16.83 v -85.676 c 0,-21.074 -13.94,-36.375 -36.89,-36.375 z m 2.04,107.594 c -15.64,0 -17.68,-13.426 -17.68,-27.02 0,-13.605 2.04,-27.031 17.68,-27.031 15.63,0 17.51,13.426 17.51,27.031 0,13.594 -1.88,27.02 -17.51,27.02" /><path
         id="path184"
         style="fill:#0d7a3f;fill-opacity:1;fill-rule:nonzero;stroke:none"
         d="m 560.777,564.418 -3.515,1.191 c -2.309,0.793 -57.168,19.805 -111.051,66.34 -65.297,56.446 -72.352,141.504 -72.352,175.457 v 210.074 l 6.137,2.98 c 51.438,25.04 108.875,36.7 180.781,36.7 71.887,0 129.305,-11.66 180.731,-36.7 l 6.133,-2.98 V 807.406 c 0,-33.945 -7.047,-118.992 -72.317,-175.457 -53.898,-46.535 -108.722,-65.547 -111.031,-66.34 l -3.516,-1.191" /><path
         id="path186"
         style="fill:#fef3b2;fill-opacity:1;fill-rule:nonzero;stroke:none"
         d="m 560.777,1035.35 c -65.597,0 -118.281,-10.06 -165.097,-31.58 V 866.352 c 19.25,11.289 35.445,24.609 47.722,38.808 14.539,-16.805 34.524,-32.422 58.653,-44.851 24.164,12.429 44.172,28.046 58.707,44.851 14.531,-16.805 34.551,-32.422 58.703,-44.851 24.121,12.429 44.094,28.046 58.621,44.851 12.273,-14.199 28.477,-27.519 47.738,-38.808 v 137.418 c -46.801,21.52 -99.476,31.58 -165.047,31.58 z m 83.395,-109.495 c -18.688,0 -31.848,2.762 -50.488,6.649 -3.368,0.703 -6.661,1.047 -9.77,1.047 -7.254,0 -13.656,-1.711 -18.832,-4.153 -1.519,-0.722 -2.953,-1.503 -4.32,-2.304 -1.336,0.801 -2.813,1.582 -4.293,2.304 -5.223,2.442 -11.571,4.153 -18.821,4.153 -3.113,0 -6.414,-0.344 -9.804,-1.047 -18.641,-3.887 -31.817,-6.649 -50.508,-6.649 -2.637,0 -5.402,0.047 -8.305,0.157 L 474.902,989 c 3.004,-0.137 5.762,-0.207 8.371,-0.234 l 1.524,19.674 5.656,-0.28 c 2.227,-0.1 4.238,-0.15 6.152,-0.15 6.555,0 12.227,0.59 18.504,1.93 3.973,0.84 7.918,1.89 12.489,3.11 2.105,0.57 4.34,1.16 6.738,1.79 8.242,2.01 15.738,0.94 22.594,-2.98 1.308,-0.73 2.601,-1.59 3.816,-2.54 1.234,0.94 2.535,1.81 3.887,2.56 6.812,3.89 14.695,4.93 22.488,2.97 2.531,-0.65 4.824,-1.27 6.984,-1.85 4.5,-1.2 8.391,-2.23 12.293,-3.06 8.36,-1.78 15.555,-2.24 24.637,-1.78 l 5.68,0.29 1.519,-19.684 c 2.629,0.027 5.344,0.086 8.391,0.234 l 5.898,-62.988 c -2.929,-0.11 -5.695,-0.157 -8.351,-0.157" /><path
         id="path188"
         style="fill:#ffffff;fill-opacity:1;fill-rule:nonzero;stroke:none"
         d="m 532.113,950.738 -0.492,-0.117 c -15.359,-3.848 -25.516,-6.398 -40.086,-6.406 l 4.024,52.137 c 7.777,0 14.492,0.586 21.968,2.168 4.27,0.91 8.356,1.99 13.094,3.26 2.074,0.57 4.27,1.15 6.57,1.75 5.075,1.25 9.676,0.63 13.993,-1.83 1.582,-0.88 2.8,-1.86 3.742,-2.712 v -49.199 c -7.363,2.5 -15.301,2.852 -22.813,0.949" /><path
         id="path190"
         style="fill:#ffffff;fill-opacity:1;fill-rule:nonzero;stroke:none"
         d="m 589.414,950.738 c -7.723,1.934 -15.394,1.629 -22.82,-0.949 v 49.133 c 1.117,1.023 2.371,2.008 3.789,2.808 4.242,2.41 9.121,3 13.859,1.81 2.457,-0.63 4.715,-1.23 6.852,-1.81 4.652,-1.24 8.683,-2.32 12.89,-3.21 7.125,-1.504 13.539,-2.176 20.946,-2.176 0.336,0 0.668,0.008 1.019,0.008 l 4.024,-52.137 c -14.84,0.008 -25.067,2.605 -40.559,6.523" /><path
         id="path192"
         style="fill:#479954;fill-opacity:1;fill-rule:nonzero;stroke:none"
         d="m 560.793,839.145 c 21.441,4.843 41.164,12.148 58.672,21.164 -24.152,12.429 -44.172,28.046 -58.703,44.851 -14.535,-16.805 -34.563,-32.422 -58.746,-44.832 17.539,-9.043 37.293,-16.348 58.777,-21.183" /><path
         id="path194"
         style="fill:#298948;fill-opacity:1;fill-rule:nonzero;stroke:none"
         d="m 443.527,839.215 c 18.407,-4.172 38.078,-6.543 58.774,-6.543 20.57,0 40.129,2.363 58.461,6.484 -21.461,4.832 -41.153,12.157 -58.68,21.16 -17.48,-8.984 -37.164,-16.257 -58.555,-21.101" /><path
         id="path196"
         style="fill:#298948;fill-opacity:1;fill-rule:nonzero;stroke:none"
         d="m 560.762,839.156 c 18.316,-4.121 37.879,-6.484 58.441,-6.484 20.692,0 40.375,2.371 58.789,6.551 -21.39,4.836 -41.066,12.109 -58.554,21.105 -17.524,-9.004 -37.219,-16.34 -58.676,-21.172" /><path
         id="path198"
         style="fill:#3e9450;fill-opacity:1;fill-rule:nonzero;stroke:none"
         d="m 395.68,832.984 c 16.683,0.672 32.703,2.813 47.847,6.231 -17.164,3.894 -33.148,9.433 -47.847,16.094 v -22.325" /><path
         id="path200"
         style="fill:#77b067;fill-opacity:1;fill-rule:nonzero;stroke:none"
         d="m 395.68,866.352 v -11.043 c 14.711,-6.672 30.711,-12.2 47.886,-16.106 21.36,4.844 41.02,12.129 58.489,21.106 -24.129,12.429 -44.114,28.046 -58.653,44.851 -12.277,-14.199 -28.472,-27.519 -47.722,-38.808" /><path
         id="path202"
         style="fill:#3e9450;fill-opacity:1;fill-rule:nonzero;stroke:none"
         d="m 725.824,855.309 c -14.691,-6.672 -30.676,-12.2 -47.832,-16.094 15.145,-3.418 31.153,-5.547 47.832,-6.231 v 22.325" /><path
         id="path204"
         style="fill:#77b067;fill-opacity:1;fill-rule:nonzero;stroke:none"
         d="m 725.824,855.309 v 11.043 c -19.261,11.289 -35.465,24.609 -47.738,38.808 -14.527,-16.805 -34.5,-32.422 -58.621,-44.851 17.469,-8.977 37.137,-16.262 58.488,-21.106 17.168,3.906 33.16,9.434 47.871,16.106" /><path
         id="path206"
         style="fill:#fddb0b;fill-opacity:1;fill-rule:nonzero;stroke:none"
         d="m 705.84,803.023 c -8.727,5.547 -16.969,10.79 -27.754,10.79 -10.789,0 -19.027,-5.243 -27.754,-10.801 -9.023,-5.75 -18.355,-11.699 -30.891,-11.699 -12.535,0 -21.882,5.949 -30.921,11.699 -8.731,5.558 -16.977,10.801 -27.766,10.801 -10.793,0 -19.035,-5.243 -27.766,-10.801 -9.039,-5.75 -18.386,-11.699 -30.914,-11.699 -12.539,0 -21.875,5.949 -30.898,11.699 -8.723,5.558 -16.961,10.801 -27.746,10.801 -10.793,0 -19.035,-5.243 -27.758,-10.79 -6.082,-3.867 -12.32,-7.793 -19.567,-9.972 0.477,-8.262 1.45,-17.969 3.243,-28.543 5.16,2.137 9.89,5.125 14.519,8.055 8.746,5.546 17.793,11.289 29.563,11.289 11.769,0 20.812,-5.743 29.554,-11.289 9.012,-5.723 17.536,-11.122 29.09,-11.122 11.551,0 20.074,5.399 29.102,11.122 8.758,5.546 17.808,11.289 29.578,11.289 11.769,0 20.82,-5.743 29.57,-11.289 9.035,-5.723 17.563,-11.122 29.117,-11.122 11.551,0 20.063,5.399 29.086,11.122 8.75,5.546 17.786,11.289 29.559,11.289 11.769,0 20.812,-5.743 29.555,-11.289 4.625,-2.93 9.355,-5.907 14.507,-8.055 1.797,10.574 2.766,20.281 3.243,28.555 -7.235,2.167 -13.477,6.093 -19.551,9.96" /><path
         id="path208"
         style="fill:#feec81;fill-opacity:1;fill-rule:nonzero;stroke:none"
         d="m 577.668,594.84 v 13.066 l -15.473,-15.215 -13.047,12.696 v 19.707 l 13.047,-12.735 15.473,15.293 v 21.532 l -15.473,-15.215 -13.047,12.695 v 20.676 l 13.047,-12.754 15.473,15.293 v 23.34 l -15.473,-15.215 -13.047,12.684 v 19.335 l 13.047,-11.894 22.063,21.496 -23.387,19.832 -25.617,-22.227 V 598.98 c 11.742,-5.851 20.832,-9.589 25.519,-11.406 3.457,1.348 9.356,3.758 16.895,7.266" /><path
         id="path210"
         style="fill:#feec81;fill-opacity:1;fill-rule:nonzero;stroke:none"
         d="m 519.063,647.074 -15.477,-15.886 -13.047,13.328 v 20.519 l 13.047,-12.949 15.477,15.527 v 24.356 l -15.477,-15.442 -13.047,12.883 v 20.613 l 13.047,-11.894 22.062,21.496 -23.39,19.832 -25.613,-22.227 v -81.882 c 14.937,-11.36 29.523,-20.528 42.418,-27.766 v 39.492" /><path
         id="path212"
         style="fill:#feec81;fill-opacity:1;fill-rule:nonzero;stroke:none"
         d="m 620.801,698.129 22.062,21.496 -23.39,19.832 -25.614,-22.227 V 602.875 c 12.457,6.574 27.11,15.215 42.414,26.145 v 18.054 l -15.472,-15.886 -13.051,13.328 v 20.519 l 13.051,-12.949 15.472,15.527 v 24.356 L 620.801,676.527 607.75,689.41 v 20.613 l 13.051,-11.894" /><path
         id="path214"
         style="fill:#feec81;fill-opacity:1;fill-rule:nonzero;stroke:none"
         d="m 679.406,698.129 22.067,21.496 -23.391,19.832 -25.617,-22.227 v -75.937 c 2.867,2.316 5.738,4.687 8.601,7.168 14.102,12.199 25.141,25.969 33.817,40.254 v 3.254 l -15.477,-15.442 -13.047,12.883 v 20.613 l 13.047,-11.894" /><path
         id="path216"
         style="fill:#feec81;fill-opacity:1;fill-rule:nonzero;stroke:none"
         d="m 444.98,698.129 22.063,21.496 -23.391,19.832 -25.613,-22.227 v -12.656 c 9.578,-19.871 23.152,-39.441 42.414,-56.101 v 43.496 L 444.98,676.527 431.934,689.41 v 20.613 l 13.046,-11.894" /></g></g></svg>